<svg width="283" height="28" viewBox="0 0 283 28" fill="none" xmlns="http://www.w3.org/2000/svg">
<path d="M7.08416 18.7895C7.14523 17.807 7.69486 17.4386 7.75593 17.3772C7.93915 17.1316 9.22162 16.7632 10.0766 17.193C10.0766 17.193 10.6262 17.4386 11.1759 17.9912L15.7562 26.1579C16.2447 27.1403 17.2829 27.2632 17.7104 27.2632H22.9014C23.0235 27.2632 23.0846 27.2632 23.2067 27.2017C23.8174 26.7105 24.0006 25.8509 23.5732 25.1754L17.2829 14.9825C16.9776 14.4298 16.9165 13.693 17.1608 13.0175C17.2829 12.6491 17.4661 12.0351 17.6493 11.3596C18.5043 8.59649 19.7257 4.42105 20.6418 4.05263C20.7639 3.99122 20.9471 3.99122 21.1303 3.92982C21.8632 3.86842 22.7792 3.74561 22.8403 2.02631C22.8403 1.53508 22.6571 1.04386 22.2907 0.614031C22.1075 0.368417 21.8021 0.24561 21.4968 0.24561H18.9318C18.8707 0.24561 15.0844 0.0613993 14.0462 3.19298C13.924 3.5614 13.8019 3.92982 13.6798 4.42105C13.3133 5.58771 12.8858 7 12.3973 8.16666C12.3362 8.28947 12.2751 8.47368 12.2141 8.65789C11.8476 9.70175 11.3591 11.1754 9.16055 11.1754C7.38951 11.1754 7.14523 9.64035 7.14523 8.96491V2.14912C7.14523 1.04386 6.22918 0.122803 5.12991 0.122803H2.01532C0.916055 0.184206 0 1.04386 0 2.14912V25.2982C0 26.4035 0.916055 27.3246 2.01532 27.3246H5.12991C6.22918 27.3246 7.14523 26.4035 7.14523 25.2982V18.7895H7.08416ZM5.61847 14.6754C4.09171 14.7368 4.09171 14.8596 4.09171 17.193V24.6842C4.09171 24.807 4.03064 24.9912 3.9085 25.0526C3.84743 25.114 3.78636 25.114 3.66422 25.114C3.66422 25.114 3.66422 25.114 3.60315 25.114C3.60315 25.114 3.60315 25.114 3.54208 25.114H3.48101C3.2978 25.0526 3.23673 24.8684 3.23673 24.6842V2.45614C3.23673 2.21052 3.41994 2.02631 3.66422 2.02631C3.9085 2.02631 4.09171 2.21052 4.09171 2.45614V12.1579C4.09171 13.693 4.39707 13.693 5.37419 13.7544H9.03841C9.22162 13.7544 9.46591 13.7544 9.64912 13.7544C11.0537 13.7544 12.0309 13.8158 13.1912 12.7719C15.0844 11.114 16.1226 5.03508 16.1836 4.78947C17.0386 2.27193 17.5272 1.96491 18.5654 1.96491C18.6875 1.96491 18.8097 1.96491 18.8707 1.96491C19.4204 1.96491 19.8479 1.96491 20.0311 2.14912C20.0921 2.21052 20.0921 2.27193 20.0921 2.39473C20.0921 2.51754 20.0311 2.57894 19.97 2.64035C19.7257 2.88596 19.054 2.82456 19.054 2.82456C17.5883 2.64035 17.344 3.6228 17.0997 4.48245C17.0386 4.60526 17.0386 4.72807 16.9776 4.91228C16.9165 5.09649 16.8554 5.4035 16.7333 5.77193C16.1226 7.92105 15.3897 12.5263 13.6798 13.5088C13.6798 13.5088 12.8248 14 13.1301 14.7368L13.3133 14.9825L13.3744 15.0439L13.6187 15.4737L19.4204 24.5614C19.4814 24.6842 19.4814 24.807 19.4814 24.9298C19.4814 25.0526 19.3593 25.1754 19.2982 25.2368C19.1761 25.2982 19.0539 25.2982 18.9318 25.2982C18.8097 25.2982 18.6875 25.1754 18.6265 25.114L12.3362 14.921C12.3362 14.921 12.2751 14.6754 11.9087 14.6754H5.61847ZM16.7333 6.50877C16.489 7.49122 16.2447 8.65789 15.8783 9.82456C16.1836 8.65789 16.489 7.49122 16.7333 6.50877Z" fill="#C5181D"/>
<path d="M236.037 18.7895C236.098 17.807 236.648 17.4386 236.709 17.3772C236.892 17.1316 238.174 16.7632 239.029 17.193C239.029 17.193 239.579 17.4386 240.129 17.9912L244.709 26.1579C245.197 27.1403 246.236 27.2632 246.663 27.2632H251.854C251.976 27.2632 252.037 27.2632 252.159 27.2017C252.77 26.7105 252.953 25.8509 252.526 25.1754L246.236 14.921C245.93 14.3684 245.869 13.6316 246.114 12.9561C246.236 12.5877 246.419 11.9737 246.602 11.2982C247.457 8.53508 248.678 4.35964 249.595 3.99122C249.717 3.92982 249.9 3.92982 250.083 3.86842C250.816 3.80701 251.732 3.68421 251.793 1.96491C251.793 1.47368 251.61 0.982452 251.243 0.552627C251.06 0.307013 250.755 0.184206 250.45 0.184206H247.946C247.885 0.184206 244.098 -4.16487e-06 243.06 3.13157C242.938 3.5 242.816 3.86842 242.694 4.35964C242.327 5.52631 241.9 6.93859 241.411 8.10526C241.35 8.22807 241.289 8.41228 241.228 8.59649C240.861 9.64035 240.373 11.114 238.174 11.114C236.403 11.114 236.159 9.57894 236.159 8.9035V2.14912C236.159 1.04386 235.243 0.122803 234.144 0.122803H231.029C229.93 0.122803 229.014 1.04386 229.014 2.14912V25.2982C229.014 26.4035 229.93 27.3246 231.029 27.3246H234.144C235.243 27.3246 236.159 26.4035 236.159 25.2982V18.7895H236.037ZM234.51 14.6754C232.983 14.7368 232.983 14.8596 232.983 17.193V24.6842C232.983 24.807 232.922 24.9912 232.8 25.0526C232.739 25.114 232.678 25.114 232.556 25.114C232.556 25.114 232.556 25.114 232.495 25.114C232.495 25.114 232.495 25.114 232.434 25.114H232.373C232.189 25.0526 232.128 24.8684 232.128 24.6842V2.45614C232.128 2.21052 232.312 2.02631 232.556 2.02631C232.8 2.02631 232.983 2.21052 232.983 2.45614V12.1579C232.983 13.693 233.289 13.693 234.266 13.7544H237.93C238.113 13.7544 238.358 13.7544 238.541 13.7544C239.945 13.7544 240.923 13.8158 242.083 12.7719C243.976 11.114 245.014 5.03508 245.075 4.78947C245.93 2.27193 246.419 1.96491 247.457 1.96491C247.579 1.96491 247.701 1.96491 247.762 1.96491C248.312 1.96491 248.74 1.96491 248.923 2.14912C248.984 2.21052 248.984 2.27193 248.984 2.39473C248.984 2.51754 248.923 2.57894 248.862 2.64035C248.617 2.88596 247.946 2.82456 247.946 2.82456C246.48 2.64035 246.236 3.6228 245.991 4.48245C245.93 4.60526 245.93 4.72807 245.869 4.91228C245.808 5.09649 245.747 5.4035 245.625 5.77193C245.014 7.92105 244.281 12.5263 242.571 13.5088C242.571 13.5088 241.716 14 242.022 14.7368L242.205 14.9825L242.266 15.0439L242.51 15.4737L248.251 24.6228C248.312 24.7456 248.312 24.8684 248.312 24.9912C248.312 25.114 248.19 25.2368 248.129 25.2982C248.007 25.3596 247.885 25.3596 247.762 25.3596C247.64 25.3596 247.518 25.2368 247.457 25.1754L241.228 14.921C241.228 14.921 241.167 14.6754 240.8 14.6754H234.51ZM245.625 6.50877C245.442 7.42982 245.136 8.65789 244.77 9.76315C245.136 8.65789 245.381 7.49122 245.625 6.50877Z" fill="#C5181D"/>
<path d="M72.6737 3.74561C67.0552 3.74561 62.475 8.35087 62.475 14C62.475 19.6491 67.0552 24.2544 72.6737 24.2544C78.2922 24.2544 82.8725 19.6491 82.8725 14C82.8725 8.35087 78.2922 3.74561 72.6737 3.74561ZM72.6737 21.1228C68.7652 21.1228 65.5285 17.9298 65.5285 13.9386C65.5285 10.0088 68.7041 6.75438 72.6737 6.75438C76.5822 6.75438 79.819 9.94736 79.819 13.9386C79.819 17.9298 76.5822 21.1228 72.6737 21.1228Z" fill="#C5181D"/>
<path d="M72.6737 0C64.9788 0 58.7497 6.26316 58.7497 14C58.7497 21.7368 64.9788 28 72.6737 28C80.3686 28 86.5978 21.7368 86.5978 14C86.5978 6.26316 80.3686 0 72.6737 0ZM72.6737 24.9298C66.6888 24.9298 61.7421 20.0175 61.7421 13.9386C61.7421 7.85965 66.6277 2.94737 72.6737 2.94737C78.6586 2.94737 83.6053 7.85965 83.6053 13.9386C83.6053 20.0175 78.6586 24.9298 72.6737 24.9298Z" fill="#C5181D"/>
<path d="M132.889 3.74561C127.271 3.74561 122.69 8.35087 122.69 14C122.69 19.6491 127.271 24.2544 132.889 24.2544C138.508 24.2544 143.088 19.6491 143.088 14C143.088 8.35087 138.508 3.74561 132.889 3.74561ZM132.889 21.1228C128.981 21.1228 125.744 17.9298 125.744 13.9386C125.744 10.0088 128.92 6.75438 132.889 6.75438C136.798 6.75438 140.034 9.94736 140.034 13.9386C139.973 17.9298 136.798 21.1228 132.889 21.1228Z" fill="#C5181D"/>
<path d="M132.889 0C125.194 0 118.965 6.26316 118.965 14C118.965 21.7368 125.194 28 132.889 28C140.584 28 146.813 21.7368 146.813 14C146.813 6.26316 140.523 0 132.889 0ZM132.889 24.9298C126.904 24.9298 121.957 20.0175 121.957 13.9386C121.957 7.85965 126.843 2.94737 132.889 2.94737C138.874 2.94737 143.821 7.85965 143.821 13.9386C143.821 20.0175 138.874 24.9298 132.889 24.9298Z" fill="#C5181D"/>
<path d="M269.076 3.74561C263.458 3.74561 258.877 8.35087 258.877 14C258.877 19.6491 263.458 24.2544 269.076 24.2544C274.694 24.2544 279.275 19.6491 279.275 14C279.275 8.35087 274.694 3.74561 269.076 3.74561ZM269.076 21.1228C265.168 21.1228 261.931 17.9298 261.931 13.9386C261.931 10.0088 265.106 6.75438 269.076 6.75438C272.985 6.75438 276.221 9.94736 276.221 13.9386C276.221 17.9298 273.046 21.1228 269.076 21.1228Z" fill="#C5181D"/>
<path d="M269.076 0C261.381 0 255.152 6.26316 255.152 14C255.152 21.7368 261.381 28 269.076 28C276.771 28 283 21.7368 283 14C283 6.26316 276.771 0 269.076 0ZM269.076 24.9298C263.091 24.9298 258.144 20.0175 258.144 13.9386C258.144 7.85965 263.03 2.94737 269.076 2.94737C275.061 2.94737 280.008 7.85965 280.008 13.9386C280.008 20.0175 275.122 24.9298 269.076 24.9298Z" fill="#C5181D"/>
<path d="M52.2152 1.22807C52.093 0.859649 51.9098 0.552632 51.6655 0.368421C51.6655 0.368421 51.6655 0.368421 51.6045 0.307018C51.4823 0.245614 51.3602 0.122807 51.238 0.0614035H51.177C50.9937 0.0614035 50.8716 0 50.6884 0H46.5967H34.6269C34.2605 0 33.9551 0.122807 33.7108 0.307018C33.7108 0.307018 33.2223 0.921053 33.1612 1.16667L32.978 2.08772V2.14912L32.7337 4.23684L31.9398 13.386L31.3902 19.2807C31.1459 22.1053 28.8252 21.8596 27.7259 22.3509C27.2985 22.5351 27.2374 23.0877 27.2374 23.5175V25.6667C27.2374 25.9123 27.2985 26.1579 27.4206 26.4035C27.6649 27.1403 28.5199 27.2632 28.8252 27.2632H31.6344C33.7108 27.386 35.3597 26.4035 35.3597 26.4035C35.5429 26.2807 35.7872 26.0965 35.9704 25.9123C36.2758 25.6053 36.5811 25.2368 36.8254 24.8684C36.8254 24.8684 37.5583 23.4561 37.6804 22.9035C37.6804 22.9035 38.23 20.7544 38.23 20.4474L38.5354 17.7456L38.7797 13.1403L39.2072 7.98246C39.4514 6.14035 41.2225 6.26316 41.2225 6.26316H43.36C45.4363 6.20175 45.0699 8.65789 45.0699 8.65789V25.6667C45.131 27.0175 46.2303 27.2017 46.5967 27.2017H51.0548C51.0548 27.2017 52.2762 27.0175 52.2762 25.6667V4.72807V1.53509C52.2152 1.47368 52.2152 1.35088 52.2152 1.22807ZM48.7341 25.3596C48.4899 25.3596 48.3067 25.1754 48.3067 24.9298C48.3067 24.9298 48.3067 24.9298 48.3067 24.8684V4.91228C48.3067 4.11403 47.6959 3.5 46.902 3.5H38.23C37.4972 3.5 36.9476 4.05263 36.8254 4.72807L34.8101 21.2456C34.6269 22.9035 33.3444 24.2544 31.7566 24.6228L29.7413 25.0526H29.6802C29.6802 25.0526 29.6802 25.0526 29.6191 25.0526H29.5581C29.3138 25.0526 29.1306 24.8684 29.1306 24.6228C29.1306 24.4386 29.2527 24.2544 29.4359 24.2544L31.5123 23.8246C32.7948 23.5175 33.833 22.4737 33.9551 21.1228L36.0315 4.66667C36.1537 3.5614 37.1308 2.70175 38.23 2.70175H46.902C48.1234 2.70175 49.1006 3.68421 49.1006 4.91228V24.8684C49.1006 24.8684 49.1006 24.8684 49.1006 24.9298C49.1616 25.1754 48.9784 25.3596 48.7341 25.3596Z" fill="#C5181D"/>
<path d="M112.858 0.122803H109.011H97.3461H93.4987C92.5826 0.122803 91.8498 0.859645 91.8498 1.7807V5.64912V25.6053C91.8498 26.5263 92.5826 27.2632 93.4987 27.2632H97.3461C98.2622 27.2632 98.995 26.5263 98.995 25.6053V7.92105C98.995 7.0614 99.6668 6.38596 100.522 6.38596H105.652C106.568 6.38596 107.362 7.1228 107.362 8.10526V25.7281C107.362 26.6491 108.095 27.386 109.011 27.386H112.858C113.774 27.386 114.507 26.6491 114.507 25.7281V5.71052V1.8421C114.568 0.921049 113.835 0.122803 112.858 0.122803ZM111.087 25.2982C110.843 25.2982 110.598 25.114 110.598 24.807C110.598 24.807 110.598 24.807 110.598 24.7456V4.85087C110.598 4.17544 110.049 3.6228 109.377 3.6228H96.9797C96.3079 3.6228 95.7583 4.17544 95.7583 4.85087V24.807C95.7583 24.807 95.7583 24.807 95.7583 24.8684C95.7583 25.114 95.5751 25.3596 95.3308 25.3596C95.0865 25.3596 94.8422 25.1754 94.8422 24.8684C94.8422 24.8684 94.8422 24.8684 94.8422 24.807V4.85087C94.8422 3.68421 95.8194 2.70175 96.9797 2.70175H109.377C110.537 2.70175 111.514 3.68421 111.514 4.85087V24.807C111.514 24.807 111.514 24.807 111.514 24.8684C111.514 25.114 111.331 25.2982 111.087 25.2982Z" fill="#C5181D"/>
<path d="M171.486 0.122803H163.485H159.577H152.065C151.149 0.122803 150.355 0.859645 150.355 1.8421V4.78947C150.355 5.71052 151.088 6.50877 152.065 6.50877H156.89C157.623 6.50877 158.172 7.0614 158.172 7.79824V26.0351C158.172 26.7719 158.783 27.386 159.516 27.386H163.913C164.646 27.386 165.256 26.7719 165.256 26.0351V7.79824C165.256 7.0614 165.806 6.50877 166.539 6.50877H171.363C172.279 6.50877 173.073 5.77193 173.073 4.78947V1.8421C173.195 0.921049 172.463 0.122803 171.486 0.122803ZM171.302 3.6228H162.264V25.114C162.264 25.3597 162.081 25.5439 161.836 25.5439C161.592 25.5439 161.409 25.3597 161.409 25.114V3.6228H152.371C152.126 3.6228 151.943 3.43859 151.943 3.19298C151.943 2.94736 152.126 2.76315 152.371 2.76315H171.302C171.547 2.76315 171.73 2.94736 171.73 3.19298C171.669 3.43859 171.486 3.6228 171.302 3.6228Z" fill="#C5181D"/>
<path d="M192.433 20.9386H185.226C184.555 20.9386 184.066 20.386 184.066 19.7719V17.9912C184.066 17.3158 184.616 16.8246 185.226 16.8246H191.333C192.249 16.8246 193.043 16.0877 193.043 15.1053V12.1579C193.043 11.2368 192.311 10.4386 191.333 10.4386H185.226C184.616 10.4386 184.066 9.94737 184.066 9.27193V7.49123C184.066 6.87719 184.555 6.32456 185.226 6.32456H192.127C193.043 6.32456 193.837 5.58772 193.837 4.60526V1.8421C193.837 0.921051 193.104 0.122805 192.127 0.122805H182.539C182.417 0.122805 182.295 0.0614014 182.173 0.0614014H178.264C177.531 0.0614014 176.921 0.675436 176.921 1.41228V1.8421V4.78947V22.7193V25.6667V25.9737C176.921 26.7105 177.531 27.3246 178.264 27.3246H178.57H182.6H192.372C193.288 27.3246 194.082 26.5877 194.082 25.6053V22.6579C194.143 21.7368 193.349 20.9386 192.433 20.9386ZM191.15 24.5614H180.463C180.219 24.5614 180.035 24.3772 180.035 24.1316V3.25438C180.035 3.00877 180.219 2.82456 180.463 2.82456H191.089C191.333 2.82456 191.517 3.00877 191.517 3.25438C191.517 3.5 191.333 3.68421 191.089 3.68421H180.829V13.4474H190.234C190.478 13.4474 190.662 13.6316 190.662 13.8772C190.662 14.1228 190.478 14.307 190.234 14.307H180.829V23.8246H191.15C191.394 23.8246 191.578 24.0088 191.578 24.2544C191.578 24.5 191.394 24.5614 191.15 24.5614Z" fill="#C5181D"/>
<path d="M221.563 0.122805H217.655C216.922 0.122805 216.311 0.73684 216.311 1.47368V9.08772C216.311 9.76315 215.762 10.2544 215.151 10.2544H208.922C208.311 10.2544 207.822 9.76315 207.822 9.14912V1.96491C207.822 0.921051 206.967 0.0614014 205.929 0.0614014H202.021C201.288 0.0614014 200.677 0.675436 200.677 1.41228V11.9123V14.8596V25.9123C200.677 26.6491 201.288 27.2632 202.021 27.2632H206.418C207.151 27.2632 207.761 26.6491 207.761 25.9123V17.7456C207.761 17.1316 208.25 16.5789 208.922 16.5789H215.273C215.823 16.5789 216.311 17.0088 216.311 17.6228V25.9737C216.311 26.7105 216.922 27.3246 217.655 27.3246H222.052C222.785 27.3246 223.395 26.7105 223.395 25.9737V14.921V11.9737V1.96491C223.456 0.982454 222.601 0.122805 221.563 0.122805ZM220.281 24.807C220.281 25.0526 220.098 25.2368 219.853 25.2368C219.609 25.2368 219.426 25.0526 219.426 24.807V13.7544H204.586V24.8684C204.586 25.114 204.402 25.2982 204.158 25.2982C203.914 25.2982 203.731 25.114 203.731 24.8684V2.33333C203.731 2.08772 203.914 1.90351 204.158 1.90351C204.402 1.90351 204.586 2.08772 204.586 2.33333V12.9561H219.426V2.33333C219.426 2.08772 219.609 1.90351 219.853 1.90351C220.098 1.90351 220.281 2.08772 220.281 2.33333V24.807Z" fill="#C5181D"/>
</svg>
